<?xml version="1.0" encoding="utf-8"?>
<!-- Generator: Adobe Illustrator 24.2.0, SVG Export Plug-In . SVG Version: 6.00 Build 0)  -->
<svg version="1.1" id="Layer_1" xmlns="http://www.w3.org/2000/svg" xmlns:xlink="http://www.w3.org/1999/xlink" x="0px" y="0px"
	 viewBox="0 0 512 512" style="enable-background:new 0 0 512 512;" xml:space="preserve">
<style type="text/css">
	.st0{fill:#49021F;}
	.st1{fill:#FF3366;}
</style>
<g>
	<g id="Surfaces">
		<g id="Publishing_Surface">
			<g id="Outline_no_shadow">
				<path class="st0" d="M110.69,36.62h290.62c44.06,0,79.69,35.62,79.69,79.69v279.38c0,44.06-35.62,79.69-79.69,79.69H110.69
					c-44.06,0-79.69-35.62-79.69-79.69V116.31C31,72.25,66.62,36.62,110.69,36.62z"/>
			</g>
		</g>
	</g>
	<g id="Outlined_Mnemonics_Logos">
		<g id="Id">
			<path class="st1" d="M194.5,151.38v192.37c0,2.06-0.94,3-2.63,3h-36.75c-1.69,0-2.44-0.94-2.44-3V151.38
				c0-1.69,0.94-2.44,2.62-2.44h36.56c1.12-0.19,2.25,0.56,2.44,1.87C194.5,151,194.5,151.19,194.5,151.38z"/>
			<path class="st1" d="M302.5,349.75c-13.87,0.19-27.75-2.62-40.31-8.44c-11.81-5.44-21.56-14.44-28.31-25.5
				c-6.94-11.44-10.31-25.69-10.31-42.75c-0.19-13.88,3.38-27.56,10.31-39.56c7.12-12.19,17.44-22.31,29.81-29.06
				c13.12-7.31,28.88-10.88,47.44-10.88c0.94,0,2.25,0,3.94,0.19c1.69,0.19,3.56,0.19,5.81,0.38v-59.25c0-1.31,0.56-2.06,1.88-2.06
				h38.06c0.94-0.19,1.69,0.56,1.88,1.31c0,0.19,0,0.38,0,0.38V313c0,3.38,0.19,7.12,0.37,11.25c0.38,3.94,0.56,7.69,0.75,10.88
				c0,1.31-0.56,2.44-1.88,3c-9.75,4.12-20.06,7.12-30.56,9C322,348.81,312.25,349.75,302.5,349.75z M320.88,312.25v-82.5
				c-1.69-0.38-3.38-0.75-5.06-0.94c-2.06-0.19-4.12-0.38-6.19-0.38c-7.31,0-14.62,1.5-21.19,4.88
				c-6.37,3.19-11.81,7.88-15.94,13.88s-6.19,14.06-6.19,23.81c-0.19,6.56,0.94,13.12,3.19,19.31c1.88,5.06,4.69,9.56,8.44,13.31
				c3.56,3.38,7.88,6,12.75,7.5c5.06,1.69,10.31,2.44,15.56,2.44c2.81,0,5.44-0.19,7.88-0.38
				C316.56,313.38,318.81,313,320.88,312.25z"/>
		</g>
	</g>
</g>
</svg>
