<?xml version="1.0" encoding="utf-8"?>
<!-- Generator: Adobe Illustrator 24.2.0, SVG Export Plug-In . SVG Version: 6.00 Build 0)  -->
<svg version="1.1" id="Layer_1" xmlns="http://www.w3.org/2000/svg" xmlns:xlink="http://www.w3.org/1999/xlink" x="0px" y="0px"
	 viewBox="0 0 512 512" style="enable-background:new 0 0 512 512;" xml:space="preserve">
<style type="text/css">
	.st0{fill:#00005B;}
	.st1{fill:#9999FF;}
</style>
<g transform="matrix(1.000000125 0 0 1.000000125 159.9999625 83)">
	<path class="st0" d="M-49.31-46.38h290.62c44.06,0,79.69,35.62,79.69,79.69v279.38c0,44.06-35.62,79.69-79.69,79.69H-49.31
		c-44.06,0-79.69-35.62-79.69-79.69V33.31C-129-10.75-93.37-46.38-49.31-46.38z"/>
	<g>
		<path class="st1" d="M-22.12,261.31V68.38c0-1.31,0.56-2.06,1.88-2.06c3.19,0,6.19,0,10.5-0.19c4.5-0.19,9.19-0.19,14.25-0.38
			c5.06-0.19,10.5-0.19,16.31-0.38c5.81-0.19,11.44-0.19,17.06-0.19C53.25,65.19,66,67.06,76.5,71c9.38,3.19,18,8.44,25.12,15.37
			c6,6,10.69,13.31,13.69,21.38c2.81,7.87,4.31,15.94,4.31,24.38c0,16.12-3.75,29.44-11.25,39.94s-18,18.38-30.19,22.88
			c-12.75,4.69-26.81,6.37-42.19,6.37c-4.5,0-7.5,0-9.37-0.19s-4.5-0.19-8.06-0.19v60.19c0.19,1.31-0.75,2.44-2.06,2.62h-36.38
			C-21.37,263.75-22.12,263-22.12,261.31L-22.12,261.31z M18.75,102.5v63c2.63,0.19,5.06,0.38,7.31,0.38H36
			c7.31,0,14.63-1.12,21.56-3.38c6-1.69,11.25-5.25,15.37-9.94c3.94-4.69,5.81-11.06,5.81-19.31c0.19-5.81-1.31-11.62-4.31-16.69
			c-3.19-4.87-7.69-8.62-13.12-10.69c-6.94-2.81-14.44-3.94-22.13-3.75c-4.88,0-9.19,0-12.75,0.19
			C22.69,102.12,20.06,102.31,18.75,102.5L18.75,102.5z"/>
		<path class="st1" d="M145.88,113.37h32.81c1.88,0,3.38,1.31,3.94,3c0.56,1.5,0.94,3,1.12,4.69c0.38,1.88,0.75,3.94,0.94,5.81
			c0.19,2.06,0.38,4.31,0.38,6.75c5.62-6.56,12.38-12,20.06-16.12c8.62-4.87,18.56-7.31,28.5-7.31c1.31-0.19,2.44,0.75,2.62,2.06
			v37.31c0,1.5-0.94,2.06-3,2.06c-6.75-0.19-13.69,0.37-20.25,1.88c-5.44,1.12-10.69,2.81-15.75,5.06
			c-3.56,1.69-6.94,3.94-9.56,6.94v95.62c0,1.88-0.75,2.62-2.44,2.62h-36.94c-1.5,0.19-2.81-0.75-3-2.25V156.87
			c0-4.5,0-9.19-0.19-14.06c-0.19-4.87-0.19-9.75-0.38-14.62c0-4.31-0.37-8.44-0.75-12.75c-0.19-0.94,0.38-1.88,1.31-2.06
			C145.31,113.19,145.69,113.19,145.88,113.37L145.88,113.37z"/>
	</g>
</g>
</svg>
